<svg id="Layer_1" data-name="Layer 1" xmlns="http://www.w3.org/2000/svg" viewBox="0 0 25 380"><title>RNOTE</title><g id="Foreground"><rect width="25" height="380"/></g><path d="M5,177.29v-2l13.82,5.57v.43l-11.19,4.5,11.19,4.55v.42L5,196.34v-2l9.49-3.79L5,186.74v-1.86L14.5,181Z" transform="translate(0 0)" style="fill:#fff"/><path d="M10.76,171.68v-.12a3.12,3.12,0,0,0-.53-2,1.85,1.85,0,0,0-1.55-.67,1.88,1.88,0,0,0-1.49.66,2.52,2.52,0,0,0-.57,1.72,5.31,5.31,0,0,0,.67,2.38H5.41a5.77,5.77,0,0,1-.6-2.62,4.31,4.31,0,0,1,1-3A3.48,3.48,0,0,1,8.52,167a3.39,3.39,0,0,1,1.76.42,3.46,3.46,0,0,1,1.23,1.35,2.81,2.81,0,0,1,.77-1.18,3.33,3.33,0,0,1,1.11-.58,4.54,4.54,0,0,1,1.38-.21,4,4,0,0,1,3,1.2,4.16,4.16,0,0,1,1.18,3,6.47,6.47,0,0,1-.76,3H16a5.69,5.69,0,0,0,1-3,2.2,2.2,0,0,0-.59-1.6,2.09,2.09,0,0,0-1.57-.61,2.18,2.18,0,0,0-1.43.5,1.91,1.91,0,0,0-.51.66,6.62,6.62,0,0,0-.31,1.55l0,.18Z" transform="translate(0 0)" style="fill:#fff"/><path d="M15.58,151.85h2.17a10.28,10.28,0,0,1,1.18,5,7.72,7.72,0,0,1-.93,3.91,6.82,6.82,0,0,1-2.55,2.54,6.93,6.93,0,0,1-3.52.94,6.72,6.72,0,0,1-5.05-2.14,7.36,7.36,0,0,1-2-5.29A12.4,12.4,0,0,1,6,152H8.08a9.49,9.49,0,0,0-1.38,4.72,5.46,5.46,0,0,0,1.49,3.93,5,5,0,0,0,3.74,1.56,4.91,4.91,0,0,0,3.73-1.54,5.49,5.49,0,0,0,1.46-3.93A8.92,8.92,0,0,0,15.58,151.85Z" transform="translate(0 0)" style="fill:#fff"/><path d="M18.77,143.76H5v-3.45A5,5,0,0,1,6,137a3.47,3.47,0,0,1,2.8-1.23,3.44,3.44,0,0,1,3.39,2.33,6.09,6.09,0,0,1,1.18-1.29A23.82,23.82,0,0,1,16,135q1.17-.72,1.76-1.15l1-.73v2.35l-.91.6-.17.12-.54.38-1,.61-1.08.66A10.75,10.75,0,0,0,13.73,139a4.27,4.27,0,0,0-.72.92,3.09,3.09,0,0,0-.22,1.38v.51h6ZM6.68,141.19v.59H11V141a5.56,5.56,0,0,0-.26-2.05,1.92,1.92,0,0,0-.77-.87,2.24,2.24,0,0,0-1.18-.31,2.1,2.1,0,0,0-1.18.34,1.84,1.84,0,0,0-.74,1A7,7,0,0,0,6.68,141.19Z" transform="translate(0 0)" style="fill:#fff"/><path d="M14.4,124.15v6.38a3,3,0,0,0,2.07-.87,2.87,2.87,0,0,0,.77-2.07,5.4,5.4,0,0,0-1.1-3.27h1.75a6,6,0,0,1,.79,1.64,6.84,6.84,0,0,1,.24,1.91,4.28,4.28,0,0,1-.62,2.42,4.51,4.51,0,0,1-1.67,1.48,5.09,5.09,0,0,1-2.43.56,4.82,4.82,0,0,1-3.36-1.17,3.92,3.92,0,0,1-1.3-3,3.59,3.59,0,0,1,1.26-2.88,5,5,0,0,1,3.38-1.07Zm-1.07,6.34v-4.56a2.51,2.51,0,0,0-1.66.64,2.06,2.06,0,0,0-.58,1.54,2.21,2.21,0,0,0,.58,1.58A2.88,2.88,0,0,0,13.32,130.49Z" transform="translate(0 0)" style="fill:#fff"/><path d="M11.15,123.48l-3.31-3.37H9.71v-2.87h1.62v2.87h4.44q1.55,0,1.55-1.29a4,4,0,0,0-.64-2h1.67a4.53,4.53,0,0,1,.58,2.26,3,3,0,0,1-.72,2,2,2,0,0,1-.49.42,2.58,2.58,0,0,1-.71.28,8,8,0,0,1-1.67.11h-4v1.58Z" transform="translate(0 0)" style="fill:#fff"/><path d="M5.89,114.56a1.05,1.05,0,0,1,.31-.76,1,1,0,0,1,.75-.32,1,1,0,0,1,.75.32,1,1,0,0,1,.32.76,1,1,0,0,1-.32.73,1,1,0,0,1-.74.32,1,1,0,0,1-.73-.32A1,1,0,0,1,5.89,114.56Zm3.81.89v-1.79h9.06v1.79Z" transform="translate(0 0)" style="fill:#fff"/><path d="M9.71,109.14h2.08l-.16-.1q-2.1-1.3-2.1-2.6a3.21,3.21,0,0,1,1-2.12l1.58.95a2.66,2.66,0,0,0-.89,1.73,1.86,1.86,0,0,0,.83,1.5,3.13,3.13,0,0,0,2,.64h4.74v1.8H9.71Z" transform="translate(0 0)" style="fill:#fff"/><path d="M14.4,95.75v6.37a3,3,0,0,0,2.07-.87,2.87,2.87,0,0,0,.77-2.07,5.4,5.4,0,0,0-1.1-3.27h1.75a6,6,0,0,1,.79,1.64,6.84,6.84,0,0,1,.24,1.91,4.28,4.28,0,0,1-.62,2.42,4.51,4.51,0,0,1-1.67,1.48,5.09,5.09,0,0,1-2.43.56,4.82,4.82,0,0,1-3.36-1.17,3.92,3.92,0,0,1-1.3-3,3.59,3.59,0,0,1,1.26-2.88,5,5,0,0,1,3.38-1.07Zm-1.07,6.34V97.53a2.51,2.51,0,0,0-1.66.64,2.06,2.06,0,0,0-.58,1.54,2.21,2.21,0,0,0,.58,1.58A2.88,2.88,0,0,0,13.32,102.09Z" transform="translate(0 0)" style="fill:#fff"/><path d="M5,87.76V86H18.77v3.83A4.2,4.2,0,0,1,17.5,93a4.77,4.77,0,0,1-3.41,1.2,4.53,4.53,0,0,1-3.29-1.26,4.28,4.28,0,0,1-1.29-3.21,5.83,5.83,0,0,1,.38-2Zm12.23,0H11.49a3.72,3.72,0,0,0-.42,1.69,2.73,2.73,0,0,0,.88,2.13,3.39,3.39,0,0,0,2.37.79,3.09,3.09,0,0,0,2.16-.69,2.13,2.13,0,0,0,.61-.88,5.94,5.94,0,0,0,.16-1.67Z" transform="translate(0 0)" style="fill:#fff"/><path d="M5,66.74V64.86H18.77v1.69l-10.6,9.2h10.6v1.85H5V76L15.7,66.74Z" transform="translate(0 0)" style="fill:#fff"/><path d="M9.69,57.83A4.73,4.73,0,0,1,11,54.39,4.49,4.49,0,0,1,14.38,53a4.27,4.27,0,0,1,3.26,1.39,4.93,4.93,0,0,1,1.29,3.5,4.73,4.73,0,0,1-1.32,3.41,4.36,4.36,0,0,1-3.29,1.37A4.4,4.4,0,0,1,11,61.3,4.82,4.82,0,0,1,9.69,57.83Zm1.62.1A2.83,2.83,0,0,0,12.15,60a3,3,0,0,0,2.16.83A2.83,2.83,0,0,0,16.43,60a3,3,0,0,0,.82-2.18,3,3,0,0,0-.83-2.16,2.87,2.87,0,0,0-2.13-.84,2.85,2.85,0,0,0-2.14.88A3,3,0,0,0,11.3,57.93Z" transform="translate(0 0)" style="fill:#fff"/><path d="M11.15,52.3,7.83,48.93H9.71V46.06h1.62v2.87h4.44q1.55,0,1.55-1.29a4,4,0,0,0-.64-2h1.67a4.53,4.53,0,0,1,.58,2.26,3,3,0,0,1-.72,2,2,2,0,0,1-.49.42,2.58,2.58,0,0,1-.71.28,8,8,0,0,1-1.67.11h-4V52.3Z" transform="translate(0 0)" style="fill:#fff"/><path d="M14.4,36.59V43a3,3,0,0,0,2.07-.87A2.87,2.87,0,0,0,17.23,40a5.4,5.4,0,0,0-1.1-3.27h1.75a6,6,0,0,1,.79,1.64,6.84,6.84,0,0,1,.24,1.91,4.28,4.28,0,0,1-.62,2.42,4.51,4.51,0,0,1-1.67,1.48,5.09,5.09,0,0,1-2.43.56,4.82,4.82,0,0,1-3.36-1.17,3.92,3.92,0,0,1-1.3-3,3.59,3.59,0,0,1,1.26-2.88,5,5,0,0,1,3.38-1.07Zm-1.07,6.34V38.36a2.51,2.51,0,0,0-1.66.64,2.06,2.06,0,0,0-.58,1.54,2.21,2.21,0,0,0,.58,1.58A2.88,2.88,0,0,0,13.32,42.92Z" transform="translate(0 0)" style="fill:#fff"/></svg>