<?xml version="1.0" encoding="UTF-8" standalone="no"?>
<!-- Created with Inkscape (http://www.inkscape.org/) -->

<svg
   xmlns:dc="http://purl.org/dc/elements/1.1/"
   xmlns:cc="http://creativecommons.org/ns#"
   xmlns:rdf="http://www.w3.org/1999/02/22-rdf-syntax-ns#"
   xmlns:svg="http://www.w3.org/2000/svg"
   xmlns="http://www.w3.org/2000/svg"
   xmlns:sodipodi="http://sodipodi.sourceforge.net/DTD/sodipodi-0.dtd"
   xmlns:inkscape="http://www.inkscape.org/namespaces/inkscape"
   id="svg2"
   version="1.1"
   inkscape:version="0.91 r13725"
   xml:space="preserve"
   width="31.25"
   height="475"
   viewBox="0 0 31.25 475"
   sodipodi:docname="OBSL.svg"><metadata
     id="metadata8"><rdf:RDF><cc:Work
         rdf:about=""><dc:format>image/svg+xml</dc:format><dc:type
           rdf:resource="http://purl.org/dc/dcmitype/StillImage" /><dc:title></dc:title></cc:Work></rdf:RDF></metadata><defs
     id="defs6" /><sodipodi:namedview
     pagecolor="#ffffff"
     bordercolor="#666666"
     borderopacity="1"
     objecttolerance="10"
     gridtolerance="10"
     guidetolerance="10"
     inkscape:pageopacity="0"
     inkscape:pageshadow="2"
     inkscape:window-width="640"
     inkscape:window-height="480"
     id="namedview4"
     showgrid="false"
     inkscape:zoom="0.64822368"
     inkscape:cx="15.625"
     inkscape:cy="237.5"
     inkscape:window-x="0"
     inkscape:window-y="27"
     inkscape:window-maximized="0"
     inkscape:current-layer="g10" /><g
     id="g10"
     inkscape:groupmode="layer"
     inkscape:label="ink_ext_XXXXXX"
     transform="matrix(1.25,0,0,-1.25,0,475)"><g
       id="g12"
       transform="scale(0.1,0.1)"><path
         d="M 0,0 250,0 250,3800 0,3800 0,0 Z"
         style="fill:#040606;fill-opacity:1;fill-rule:nonzero;stroke:none"
         id="path14"
         inkscape:connector-curvature="0" /><path
         d="m 49.3633,862.879 0,19.66 138.2417,-55.648 0,-4.332 -111.9331,-45.008 111.9331,-45.469 0,-4.23 -138.2417,-55.473 0,19.851 94.8827,37.93 -94.8827,38.192 0,18.628 94.8827,38.36 -94.8827,37.539"
         style="fill:#ffffff;fill-opacity:1;fill-rule:nonzero;stroke:none"
         id="path16"
         inkscape:connector-curvature="0" /><path
         d="m 106.91,919 0,1.18 c 0,8.601 -1.777,15.148 -5.324,19.66 -3.543,4.5 -8.6993,6.738 -15.4688,6.738 -6.1055,0 -11.0703,-2.18 -14.8789,-6.547 -3.8086,-4.359 -5.711,-10.101 -5.711,-17.203 0,-7.148 2.2305,-15.098 6.6993,-23.828 l -18.8203,0 c -4.0079,8 -6.0079,16.738 -6.0079,26.211 0,12.668 3.3164,22.668 9.9414,30 6.629,7.32 15.6875,10.98 27.1719,10.98 6.961,0 12.8164,-1.41 17.5783,-4.23 4.758,-2.832 8.844,-7.332 12.258,-13.5 2.101,5.379 4.679,9.328 7.738,11.82 3.055,2.5 6.754,4.43 11.09,5.821 4.344,1.367 8.941,2.07 13.804,2.07 12.036,0 21.973,-4.024 29.829,-12.024 7.847,-8.019 11.777,-18.136 11.777,-30.359 0,-10.437 -2.523,-20.519 -7.578,-30.238 l -21.488,0 c 6.503,10.371 9.757,20.461 9.757,30.238 0,6.633 -1.972,11.981 -5.91,16.02 -3.941,4.031 -9.168,6.05 -15.672,6.05 -5.449,0 -10.207,-1.668 -14.289,-5.019 -2.293,-1.969 -3.98,-4.16 -5.066,-6.551 -1.082,-2.398 -2.117,-7.578 -3.106,-15.519 l -0.195,-1.77 -18.129,0"
         style="fill:#ffffff;fill-opacity:1;fill-rule:nonzero;stroke:none"
         id="path18"
         inkscape:connector-curvature="0" /><path
         d="m 155.09,1117.33 21.68,0 c 7.878,-14.45 11.816,-31.14 11.816,-50.05 0,-15.37 -3.09,-28.41 -9.262,-39.12 -6.172,-10.71 -14.676,-19.18 -25.515,-25.42 -10.84,-6.24 -22.571,-9.361 -35.176,-9.361 -20.0353,0 -36.8869,7.141 -50.5471,21.431 -13.664,14.28 -20.4921,31.91 -20.4921,52.86 0,14.45 3.7773,30.52 11.332,48.18 l 21.1797,0 c -9.1914,-16.09 -13.793,-31.82 -13.793,-47.2 0,-15.76 4.9766,-28.84 14.9258,-39.25 9.9531,-10.42 22.4177,-15.63 37.3947,-15.63 15.105,0 27.519,5.13 37.246,15.37 9.719,10.26 14.582,23.36 14.582,39.32 0,16.68 -5.129,32.98 -15.371,48.87"
         style="fill:#ffffff;fill-opacity:1;fill-rule:nonzero;stroke:none"
         id="path20"
         inkscape:connector-curvature="0" /><path
         d="m 66.1172,1265.97 c 0,-15.75 4.9258,-28.7 14.7773,-38.84 9.8516,-10.14 22.4335,-15.2 37.7385,-15.2 14.844,0 27.195,5.07 37.051,15.25 9.851,10.18 14.777,22.9 14.777,38.19 0,15.36 -5.031,28.18 -15.078,38.44 -10.051,10.27 -22.563,15.41 -37.535,15.41 -14.586,0 -26.8519,-5.14 -36.805,-15.41 -9.9492,-10.26 -14.9258,-22.88 -14.9258,-37.84 z m -18.7188,-0.79 c 0,21.27 6.7344,38.97 20.1954,53.12 13.4648,14.14 30.3476,21.21 50.6442,21.21 20.297,0 37.094,-7.13 50.395,-21.41 13.301,-14.28 19.953,-32.28 19.953,-54.01 0,-20.74 -6.652,-38.02 -19.953,-51.83 -13.301,-13.82 -29.961,-20.73 -50,-20.73 -20.5549,0 -37.5744,6.96 -51.0392,20.87 -13.461,13.92 -20.1954,31.51 -20.1954,52.78"
         style="fill:#ffffff;fill-opacity:1;fill-rule:nonzero;stroke:none"
         id="path22"
         inkscape:connector-curvature="0" /><path
         d="m 120.012,1378.43 49.07,0 c 1.836,6.11 2.754,12.38 2.754,18.82 0,7.95 -2.82,14.43 -8.469,19.46 -5.652,5.02 -12.906,7.54 -21.773,7.54 -9.004,0 -16.324,-2.35 -21.977,-7.05 -5.648,-4.7 -8.472,-10.82 -8.472,-18.37 0,-6.7 2.957,-13.51 8.867,-20.4 z m -70.6487,-17.93 0,17.93 53.5037,0 c -5.6443,7.75 -8.4725,16.03 -8.4725,24.83 0,11.5 4.336,20.89 13.0075,28.18 8.668,7.29 19.805,10.94 33.399,10.94 14.582,0 26.191,-4.36 34.836,-13.06 8.633,-8.7 12.949,-20.34 12.949,-34.92 0,-5.85 -0.625,-12.01 -1.867,-18.48 -1.25,-6.47 -2.824,-11.61 -4.739,-15.42 l -132.6167,0"
         style="fill:#ffffff;fill-opacity:1;fill-rule:nonzero;stroke:none"
         id="path24"
         inkscape:connector-curvature="0" /><path
         d="m 180.508,1457.76 -19.309,0 c 3.547,5.05 6.418,10.22 8.614,15.51 2.207,5.29 3.3,9.74 3.3,13.35 0,3.74 -0.918,6.97 -2.754,9.65 -1.836,2.7 -4.043,4.04 -6.597,4.04 -2.629,0 -4.817,-0.86 -6.555,-2.6 -1.738,-1.75 -4.246,-5.51 -7.539,-11.28 -6.438,-11.56 -11.934,-19.14 -16.504,-22.72 -4.566,-3.58 -9.543,-5.37 -14.926,-5.37 -6.965,0 -12.64,2.72 -17.047,8.13 -4.398,5.42 -6.6012,12.4 -6.6012,20.93 0,8.87 2.5,17.97 7.4882,27.3 l 17.735,0 c -6.434,-10.64 -9.653,-19.35 -9.653,-26.11 0,-3.48 0.738,-6.29 2.219,-8.42 1.476,-2.14 3.437,-3.2 5.867,-3.2 2.106,0 4.113,0.96 6.024,2.9 1.902,1.93 4.203,5.33 6.89,10.19 l 3.645,6.41 c 8.547,15.1 18,22.66 28.371,22.66 7.422,0 13.512,-2.9 18.269,-8.72 4.766,-5.81 7.141,-13.28 7.141,-22.41 0,-5.39 -0.578,-10.19 -1.723,-14.38 -1.148,-4.21 -3.269,-9.5 -6.355,-15.86"
         style="fill:#ffffff;fill-opacity:1;fill-rule:nonzero;stroke:none"
         id="path26"
         inkscape:connector-curvature="0" /><path
         d="m 112.328,1582.19 c 0,-8.6 2.824,-15.66 8.473,-21.18 5.648,-5.52 12.844,-8.28 21.582,-8.28 8.664,0 15.742,2.82 21.23,8.47 5.481,5.65 8.223,12.91 8.223,21.78 0,8.8 -2.773,16.01 -8.32,21.62 -5.555,5.62 -12.664,8.43 -21.336,8.43 -8.606,0 -15.731,-2.92 -21.379,-8.77 -5.649,-5.85 -8.473,-13.2 -8.473,-22.07 z m -16.16,0.99 c 0,13.79 4.453,25.25 13.348,34.38 8.902,9.13 20.089,13.69 33.55,13.69 13.079,0 23.926,-4.63 32.571,-13.88 8.633,-9.27 12.949,-20.93 12.949,-34.98 0,-13.6 -4.387,-24.97 -13.156,-34.1 -8.758,-9.13 -19.715,-13.69 -32.852,-13.69 -13.269,0 -24.32,4.61 -33.16,13.84 -8.832,9.23 -13.25,20.81 -13.25,34.74"
         style="fill:#ffffff;fill-opacity:1;fill-rule:nonzero;stroke:none"
         id="path28"
         inkscape:connector-curvature="0" /><path
         d="m 49.3633,1651.56 137.648,0 0,17.9219 -137.648,0 0,-17.9219 z"
         style="fill:#ffffff;fill-opacity:1;fill-rule:nonzero;stroke:none"
         id="path30"
         inkscape:connector-curvature="0" /><path
         d="m 132.527,1709.29 0,45.62 c -7.16,-0.46 -12.679,-2.59 -16.554,-6.4 -3.871,-3.81 -5.813,-8.94 -5.813,-15.37 0,-6.45 1.942,-11.71 5.813,-15.82 3.875,-4.1 9.394,-6.78 16.554,-8.03 z m 10.735,63.36 0,-63.75 c 8.672,0.46 15.566,3.36 20.691,8.72 5.129,5.35 7.688,12.27 7.688,20.73 0,11.83 -3.68,22.74 -11.036,32.72 l 17.54,0 c 3.679,-5.52 6.308,-10.99 7.878,-16.41 1.582,-5.42 2.368,-11.77 2.368,-19.06 0,-9.99 -2.075,-18.07 -6.203,-24.24 -4.141,-6.17 -9.708,-11.12 -16.708,-14.82 -6.996,-3.73 -15.089,-5.57 -24.289,-5.57 -13.789,0 -25.003,3.91 -33.64,11.72 -8.6408,7.82 -12.9612,17.97 -12.9612,30.45 0,12.02 4.2032,21.61 12.6132,28.77 8.406,7.15 19.672,10.74 33.793,10.74 l 2.266,0"
         style="fill:#ffffff;fill-opacity:1;fill-rule:nonzero;stroke:none"
         id="path32"
         inkscape:connector-curvature="0" /><path
         d="m 110.754,1779.35 -33.1056,33.7 18.7188,0 0,28.67 16.1558,0 0,-28.67 44.364,0 c 10.359,0 15.547,4.3 15.547,12.9 0,6.44 -2.141,13.24 -6.411,20.4 l 16.75,0 c 3.875,-6.89 5.813,-14.42 5.813,-22.57 0,-8.21 -2.395,-15.04 -7.191,-20.49 -1.446,-1.71 -3.067,-3.12 -4.879,-4.23 -1.797,-1.13 -4.172,-2.06 -7.09,-2.82 -2.922,-0.75 -8.488,-1.13 -16.699,-1.13 l -40.204,0 0,-15.76 -1.769,0"
         style="fill:#ffffff;fill-opacity:1;fill-rule:nonzero;stroke:none"
         id="path34"
         inkscape:connector-curvature="0" /><path
         d="m 132.527,1873.15 0,45.62 c -7.16,-0.47 -12.679,-2.6 -16.554,-6.4 -3.871,-3.81 -5.813,-8.94 -5.813,-15.38 0,-6.44 1.942,-11.7 5.813,-15.82 3.875,-4.1 9.394,-6.77 16.554,-8.02 z m 10.735,63.36 0,-63.75 c 8.672,0.46 15.566,3.36 20.691,8.72 5.129,5.35 7.688,12.26 7.688,20.73 0,11.83 -3.68,22.73 -11.036,32.71 l 17.54,0 c 3.679,-5.51 6.308,-10.98 7.878,-16.4 1.582,-5.42 2.368,-11.77 2.368,-19.06 0,-9.99 -2.075,-18.07 -6.203,-24.24 -4.141,-6.17 -9.708,-11.13 -16.708,-14.83 -6.996,-3.72 -15.089,-5.56 -24.289,-5.56 -13.789,0 -25.003,3.9 -33.64,11.72 -8.6408,7.82 -12.9612,17.96 -12.9612,30.44 0,12.03 4.2032,21.62 12.6132,28.77 8.406,7.16 19.672,10.75 33.793,10.75 l 2.266,0"
         style="fill:#ffffff;fill-opacity:1;fill-rule:nonzero;stroke:none"
         id="path36"
         inkscape:connector-curvature="0" /><path
         d="m 66.1172,2040.65 0,-5.92 43.4528,0 0,7.49 c 0,9.98 -0.855,16.84 -2.562,20.55 -1.711,3.71 -4.289,6.6 -7.7346,8.66 -3.4492,2.07 -7.375,3.1 -11.7773,3.1 -4.332,0 -8.2578,-1.14 -11.7734,-3.44 -3.5118,-2.3 -5.9922,-5.54 -7.4375,-9.71 -1.4454,-4.17 -2.168,-11.08 -2.168,-20.73 z m 120.8948,-25.63 -137.6487,0 0,34.49 c 0,13.92 3.4531,24.97 10.3476,33.16 6.8985,8.17 16.2266,12.26 27.9844,12.26 8.0117,0 14.9417,-2 20.7887,-6.01 5.848,-4.01 10.215,-9.76 13.102,-17.24 2.891,4.4 6.836,8.7 11.82,12.9 5,4.21 13.703,10.12 26.114,17.74 7.824,4.79 13.695,8.64 17.636,11.53 l 9.856,7.3 0,-23.46 -9.074,-6 c -0.321,-0.2 -0.875,-0.59 -1.668,-1.18 l -5.43,-3.84 -10.051,-6.1 -10.75,-6.59 c -5.644,-4.08 -10.144,-7.8 -13.484,-11.18 -3.34,-3.39 -5.766,-6.45 -7.235,-9.18 -1.472,-2.73 -2.215,-7.32 -2.215,-13.76 l 0,-5.13 59.907,0 0,-19.71"
         style="fill:#ffffff;fill-opacity:1;fill-rule:nonzero;stroke:none"
         id="path38"
         inkscape:connector-curvature="0" /><path
         d="m 132.527,2147.75 0,45.62 c -7.16,-0.47 -12.679,-2.6 -16.554,-6.4 -3.871,-3.81 -5.813,-8.94 -5.813,-15.38 0,-6.44 1.942,-11.7 5.813,-15.82 3.875,-4.1 9.394,-6.77 16.554,-8.02 z m 10.735,63.36 0,-63.75 c 8.672,0.45 15.566,3.36 20.691,8.72 5.129,5.35 7.688,12.26 7.688,20.73 0,11.83 -3.68,22.73 -11.036,32.71 l 17.54,0 c 3.679,-5.51 6.308,-10.98 7.878,-16.4 1.582,-5.42 2.368,-11.77 2.368,-19.06 0,-10 -2.075,-18.07 -6.203,-24.24 -4.141,-6.17 -9.708,-11.13 -16.708,-14.83 -6.996,-3.72 -15.089,-5.56 -24.289,-5.56 -13.789,0 -25.003,3.9 -33.64,11.72 -8.6408,7.82 -12.9612,17.96 -12.9612,30.44 0,12.03 4.2032,21.62 12.6132,28.77 8.406,7.16 19.672,10.75 33.793,10.75 l 2.266,0"
         style="fill:#ffffff;fill-opacity:1;fill-rule:nonzero;stroke:none"
         id="path40"
         inkscape:connector-curvature="0" /><path
         d="m 165.828,2298.5 17.735,0 c 3.351,-9 5.023,-17.8 5.023,-26.41 0,-14.19 -4.199,-25.5 -12.609,-33.94 -8.411,-8.44 -19.668,-12.66 -33.797,-12.66 -14.25,0 -25.75,4.1 -34.485,12.32 -8.7341,8.21 -13.1052,19.01 -13.1052,32.42 0,4.66 0.4454,8.84 1.3321,12.56 0.8828,3.71 2.5469,8.29 4.9761,13.74 l 19.114,0 c -5.778,-9.07 -8.668,-17.47 -8.668,-25.22 0,-8.08 2.84,-14.72 8.519,-19.91 5.684,-5.19 12.918,-7.78 21.731,-7.78 9.258,0 16.621,2.81 22.066,8.42 5.449,5.62 8.176,13.19 8.176,22.72 0,6.89 -2,14.8 -6.008,23.74"
         style="fill:#ffffff;fill-opacity:1;fill-rule:nonzero;stroke:none"
         id="path42"
         inkscape:connector-curvature="0" /><path
         d="m 112.328,2361.26 c 0,-8.6 2.824,-15.66 8.473,-21.18 5.648,-5.52 12.844,-8.28 21.582,-8.28 8.664,0 15.742,2.82 21.23,8.48 5.481,5.64 8.223,12.91 8.223,21.77 0,8.8 -2.773,16.01 -8.32,21.62 -5.555,5.62 -12.664,8.43 -21.336,8.43 -8.606,0 -15.731,-2.92 -21.379,-8.77 -5.649,-5.85 -8.473,-13.2 -8.473,-22.07 z m -16.16,0.99 c 0,13.79 4.453,25.25 13.348,34.38 8.902,9.13 20.089,13.69 33.55,13.69 13.079,0 23.926,-4.62 32.571,-13.88 8.633,-9.27 12.949,-20.93 12.949,-34.98 0,-13.6 -4.387,-24.96 -13.156,-34.09 -8.758,-9.14 -19.715,-13.7 -32.852,-13.7 -13.269,0 -24.32,4.61 -33.16,13.84 -8.832,9.23 -13.25,20.81 -13.25,34.74"
         style="fill:#ffffff;fill-opacity:1;fill-rule:nonzero;stroke:none"
         id="path44"
         inkscape:connector-curvature="0" /><path
         d="m 121.195,2504.52 65.817,0 0,-18.02 -50.449,0 c -10.047,0 -17.059,-1.35 -21.036,-4.05 -3.968,-2.69 -5.957,-7.39 -5.957,-14.09 0,-3.74 0.852,-7.18 2.559,-10.29 1.711,-3.13 4.73,-6.69 9.066,-10.69 l 65.817,0 0,-17.93 -90.6448,0 0,17.93 11.9178,0 c -9.1287,9.13 -13.6952,18.06 -13.6952,26.79 0,11.5 5.4532,20.4 16.3552,26.71 -11.0348,9.59 -16.5505,19.6 -16.5505,30.05 0,8.8 3.2188,16.05 9.6525,21.73 6.441,5.67 16.262,8.51 29.461,8.51 l 53.504,0 0,-17.93 -53.699,0 c -7.551,0 -13.333,-1.54 -17.34,-4.62 -4.004,-3.09 -6.012,-7.52 -6.012,-13.31 0,-7.42 3.746,-14.35 11.234,-20.79"
         style="fill:#ffffff;fill-opacity:1;fill-rule:nonzero;stroke:none"
         id="path46"
         inkscape:connector-curvature="0" /><path
         d="m 121.195,2660.1 65.817,0 0,-18.03 -50.449,0 c -10.047,0 -17.059,-1.34 -21.036,-4.04 -3.968,-2.7 -5.957,-7.39 -5.957,-14.09 0,-3.74 0.852,-7.18 2.559,-10.29 1.711,-3.13 4.73,-6.69 9.066,-10.7 l 65.817,0 0,-17.93 -90.6448,0 0,17.93 11.9178,0 c -9.1287,9.13 -13.6952,18.07 -13.6952,26.8 0,11.49 5.4532,20.4 16.3552,26.71 -11.0348,9.59 -16.5505,19.6 -16.5505,30.05 0,8.8 3.2188,16.04 9.6525,21.72 6.441,5.68 16.262,8.52 29.461,8.52 l 53.504,0 0,-17.93 -53.699,0 c -7.551,0 -13.333,-1.54 -17.34,-4.63 -4.004,-3.08 -6.012,-7.52 -6.012,-13.3 0,-7.42 3.746,-14.35 11.234,-20.79"
         style="fill:#ffffff;fill-opacity:1;fill-rule:nonzero;stroke:none"
         id="path48"
         inkscape:connector-curvature="0" /><path
         d="m 132.527,2755.28 0,45.62 c -7.16,-0.47 -12.679,-2.6 -16.554,-6.41 -3.871,-3.8 -5.813,-8.93 -5.813,-15.37 0,-6.44 1.942,-11.71 5.813,-15.82 3.875,-4.1 9.394,-6.77 16.554,-8.02 z m 10.735,63.36 0,-63.75 c 8.672,0.45 15.566,3.35 20.691,8.72 5.129,5.35 7.688,12.26 7.688,20.73 0,11.82 -3.68,22.73 -11.036,32.71 l 17.54,0 c 3.679,-5.51 6.308,-10.98 7.878,-16.4 1.582,-5.42 2.368,-11.77 2.368,-19.07 0,-9.99 -2.075,-18.06 -6.203,-24.23 -4.141,-6.18 -9.708,-11.13 -16.708,-14.83 -6.996,-3.72 -15.089,-5.56 -24.289,-5.56 -13.789,0 -25.003,3.9 -33.64,11.71 -8.6408,7.83 -12.9612,17.97 -12.9612,30.45 0,12.03 4.2032,21.61 12.6132,28.77 8.406,7.16 19.672,10.75 33.793,10.75 l 2.266,0"
         style="fill:#ffffff;fill-opacity:1;fill-rule:nonzero;stroke:none"
         id="path50"
         inkscape:connector-curvature="0" /><path
         d="m 96.3672,2855.98 11.5238,0 c -8.8676,8.01 -13.3012,17.11 -13.3012,27.29 0,5.65 1.4649,10.9 4.3829,15.77 2.9253,4.86 6.9333,8.55 12.0233,11.08 5.094,2.53 13.152,3.79 24.192,3.79 l 51.824,0 0,-17.93 -51.629,0 c -9.262,0 -15.879,-1.42 -19.856,-4.24 -3.968,-2.82 -5.957,-7.55 -5.957,-14.19 0,-8.46 4.235,-15.66 12.711,-21.57 l 64.731,0 0,-18.33 -90.6448,0 0,18.33"
         style="fill:#ffffff;fill-opacity:1;fill-rule:nonzero;stroke:none"
         id="path52"
         inkscape:connector-curvature="0" /><path
         d="m 171.641,2999.43 -57.442,0 c -2.82,-5.58 -4.238,-11.23 -4.238,-16.95 0,-8.93 2.926,-16.04 8.769,-21.32 5.848,-5.3 13.731,-7.95 23.653,-7.95 9.328,0 16.512,2.31 21.57,6.91 3.027,2.76 5.063,5.67 6.113,8.77 1.047,3.09 1.575,8.63 1.575,16.65 l 0,13.89 z m -122.2777,0 0,18.03 137.6487,0 0,-38.33 c 0,-13.4 -4.239,-24.09 -12.715,-32.07 -8.469,-7.97 -19.832,-11.97 -34.082,-11.97 -13.34,0 -24.309,4.19 -32.914,12.56 -8.6057,8.38 -12.9065,19.07 -12.9065,32.08 0,6.04 1.2774,12.61 3.8438,19.7 l -48.875,0"
         style="fill:#ffffff;fill-opacity:1;fill-rule:nonzero;stroke:none"
         id="path54"
         inkscape:connector-curvature="0" /><path
         d="m 169.082,3081.12 -26.902,0 4.636,-12.03 c 2.422,-6.1 4.872,-10.43 7.332,-12.95 2.461,-2.52 5.54,-3.79 9.219,-3.79 3.742,0 6.797,1.2 9.16,3.59 2.368,2.4 3.547,5.51 3.547,9.32 0,5.71 -2.336,10.99 -6.992,15.86 z m -36.555,17.63 38.528,0 c 3.086,0 4.629,1.06 4.629,3.16 0,2.16 -1.614,5.54 -4.832,10.14 l 10.933,0 c 2.629,-4.07 4.426,-7.33 5.371,-9.8 0.957,-2.46 1.43,-5.04 1.43,-7.73 0,-7.69 -3.02,-12.22 -9.066,-13.6 5.918,-7.62 8.871,-15.73 8.871,-24.33 0,-6.31 -2.082,-11.57 -6.25,-15.77 -4.172,-4.21 -9.414,-6.3 -15.727,-6.3 -5.711,0 -10.816,2.05 -15.32,6.16 -4.492,4.1 -8.059,9.93 -10.684,17.48 l -7.883,22.96 -4.832,0 c -10.902,0 -16.351,-5.45 -16.351,-16.36 0,-9.79 5.058,-19.31 15.172,-28.58 l -19.606,0 c -8.2147,6.97 -12.3202,16.99 -12.3202,30.06 0,9.79 2.5625,17.64 7.6832,23.55 1.649,1.97 3.832,3.74 6.555,5.32 2.731,1.57 5.453,2.58 8.18,3.01 2.722,0.42 7.898,0.63 15.519,0.63"
         style="fill:#ffffff;fill-opacity:1;fill-rule:nonzero;stroke:none"
         id="path56"
         inkscape:connector-curvature="0" /><path
         d="m 110.754,3115.21 -33.1056,33.7 18.7188,0 0,28.67 16.1558,0 0,-28.67 44.364,0 c 10.359,0 15.547,4.3 15.547,12.9 0,6.44 -2.141,13.24 -6.411,20.4 l 16.75,0 c 3.875,-6.89 5.813,-14.42 5.813,-22.57 0,-8.21 -2.395,-15.04 -7.191,-20.49 -1.446,-1.7 -3.067,-3.12 -4.879,-4.24 -1.797,-1.12 -4.172,-2.05 -7.09,-2.81 -2.922,-0.75 -8.488,-1.13 -16.699,-1.13 l -40.204,0 0,-15.76 -1.769,0"
         style="fill:#ffffff;fill-opacity:1;fill-rule:nonzero;stroke:none"
         id="path58"
         inkscape:connector-curvature="0" /><path
         d="m 96.3672,3195.51 0,17.93 90.6448,0 0,-17.93 -90.6448,0 z m -38.1367,8.87 c 0,2.96 1.0234,5.48 3.0586,7.58 2.0351,2.11 4.5312,3.16 7.4922,3.16 2.8867,0 5.3828,-1.05 7.4843,-3.16 2.1016,-2.1 3.1524,-4.62 3.1524,-7.58 0,-2.77 -1.0703,-5.19 -3.2032,-7.3 -2.1328,-2.1 -4.6132,-3.15 -7.4335,-3.15 -2.7657,0 -5.211,1.05 -7.3477,3.15 -2.1328,2.11 -3.2031,4.53 -3.2031,7.3"
         style="fill:#ffffff;fill-opacity:1;fill-rule:nonzero;stroke:none"
         id="path60"
         inkscape:connector-curvature="0" /><path
         d="m 112.328,3281.72 c 0,-8.6 2.824,-15.66 8.473,-21.18 5.648,-5.52 12.844,-8.28 21.582,-8.28 8.664,0 15.742,2.82 21.23,8.47 5.481,5.65 8.223,12.91 8.223,21.78 0,8.8 -2.773,16.01 -8.32,21.62 -5.555,5.62 -12.664,8.43 -21.336,8.43 -8.606,0 -15.731,-2.92 -21.379,-8.77 -5.649,-5.85 -8.473,-13.2 -8.473,-22.07 z m -16.16,0.99 c 0,13.79 4.453,25.25 13.348,34.38 8.902,9.13 20.089,13.7 33.55,13.7 13.079,0 23.926,-4.63 32.571,-13.89 8.633,-9.27 12.949,-20.93 12.949,-34.98 0,-13.6 -4.387,-24.96 -13.156,-34.1 -8.758,-9.12 -19.715,-13.69 -32.852,-13.69 -13.269,0 -24.32,4.61 -33.16,13.84 -8.832,9.23 -13.25,20.81 -13.25,34.74"
         style="fill:#ffffff;fill-opacity:1;fill-rule:nonzero;stroke:none"
         id="path62"
         inkscape:connector-curvature="0" /><path
         d="m 96.3672,3368.63 11.5238,0 c -8.8676,8 -13.3012,17.1 -13.3012,27.29 0,5.65 1.4649,10.9 4.3829,15.76 2.9253,4.87 6.9333,8.56 12.0233,11.09 5.094,2.53 13.152,3.78 24.192,3.78 l 51.824,0 0,-17.92 -51.629,0 c -9.262,0 -15.879,-1.42 -19.856,-4.24 -3.968,-2.82 -5.957,-7.55 -5.957,-14.19 0,-8.47 4.235,-15.66 12.711,-21.57 l 64.731,0 0,-18.33 -90.6448,0 0,18.33"
         style="fill:#ffffff;fill-opacity:1;fill-rule:nonzero;stroke:none"
         id="path64"
         inkscape:connector-curvature="0" /></g></g></svg>